# xmcd
#
# Track frame offsets:
#  150
#  10455
#  24252
#  35230
#  47651
#  58884
#  72949
#  84873
#  96675
#  111672
#  121961
#  136189
#  149570
#  160278
#  170183
#  182479
#
# Disc length: 2579 seconds
#
# Revision: 0
# Processed by: cddbd v1.5.1PL0 Copyright (c) Steve Scherf et al.
# Submitted via: Collectorz.com Music Collector 6.9
#
DISCID=ee0a1110
DTITLE=Various Artist - Number One Ballads
DYEAR=2004
DGENRE=Country
TTITLE0=Johnny Cash - There You Go
TTITLE1=Patti Page - The Tennessee Waltz
TTITLE2=Roger Miller - King of The Road
TTITLE3=Merle Haggard - If We Make It Through December
TTITLE4=Conway Twitty - Hello Darlin'
TTITLE5=Lee Greenwood - Dixie Road
TTITLE6=Hank Williams - Long Gone Lonesome Blues
TTITLE7=Jerry Wallace - If You Leave Me Tonight I Cry
TTITLE8=Ed Bruce - You're The Best Break This Old Heart Ever Had
TTITLE9=Hank Locklin - Let Me Be The One
TTITLE10=T. Graham Brown - Hell And High Water
TTITLE11=Charley Pride - (I'm So) Afraid of Losing You Again
TTITLE12=Loretta Lynn - One's On The Way
TTITLE13=Brenda Lee - I'm Sorry
TTITLE14=Freddy Fender - Wasted Days And Wasted Nights
TTITLE15=Eddy Arnold - It's A Sin
EXTD=
EXTT0=
EXTT1=
EXTT2=
EXTT3=
EXTT4=
EXTT5=
EXTT6=
EXTT7=
EXTT8=
EXTT9=
EXTT10=
EXTT11=
EXTT12=
EXTT13=
EXTT14=
EXTT15=
PLAYORDER=
